<?xml version="1.0" encoding="UTF-8"?>
<!-- Generator: visioncortex VTracer 0.6.3 -->
<svg version="1.1" xmlns="http://www.w3.org/2000/svg" width="1280" height="24">
<path d="M0 0 C422.4 0 844.8 0 1280 0 C1280 7.92 1280 15.84 1280 24 C857.6 24 435.2 24 0 24 C0 16.08 0 8.16 0 0 Z " fill="#141516" transform="translate(0,0)"/>
<path d="M0 0 C0.99 0.66 1.98 1.32 3 2 C3.29 4.38 3.29 4.38 3.19 7.12 C3.16 8.04 3.13 8.95 3.11 9.88 C3.07 10.58 3.04 11.28 3 12 C-1.71 12.12 -4.81 11.09 -9 9 C-9.62 6.44 -9.62 6.44 -10 4 C-9.09 3.71 -8.19 3.42 -7.25 3.12 C-4.68 2.23 -2.39 1.29 0 0 Z " fill="#575554" transform="translate(120,5)"/>
<path d="M0 0 C7.75 -0.12 7.75 -0.12 10 1 C10 1.66 10 2.32 10 3 C10.66 3 11.32 3 12 3 C12 4.65 12 6.3 12 8 C10.93 7.98 9.86 7.96 8.75 7.94 C5.2 7.84 5.2 7.84 2.69 8.62 C2.13 8.75 1.57 8.87 1 9 C0.34 8.34 -0.32 7.68 -1 7 C-0.62 3.38 -0.62 3.38 0 0 Z " fill="#DFE2E1" transform="translate(1156,8)"/>
<path d="M0 0 C1.21 0.03 1.21 0.03 2.44 0.06 C2.77 2.37 3.1 4.68 3.44 7.06 C2.12 6.73 0.8 6.4 -0.56 6.06 C-0.56 6.72 -0.56 7.38 -0.56 8.06 C1.09 8.06 2.74 8.06 4.44 8.06 C4.44 8.72 4.44 9.38 4.44 10.06 C0.58 11.93 -1.44 12.05 -5.56 11.06 C-5.25 9.42 -4.94 7.77 -4.62 6.12 C-4.45 5.21 -4.28 4.29 -4.1 3.35 C-3.35 0.17 -3.32 0.08 0 0 Z " fill="#A2A5A2" transform="translate(701.5625,6.9375)"/>
<path d="M0 0 C0.66 0.66 1.32 1.32 2 2 C1.62 5.62 1.62 5.62 1 9 C-0.88 9.62 -0.88 9.62 -3 10 C-5 8 -5 8 -5.44 5.56 C-5 3 -5 3 -2.5 1.19 C-1.68 0.8 -0.85 0.4 0 0 Z " fill="#6B7270" transform="translate(197,8)"/>
<path d="M0 0 C1.98 0.5 1.98 0.5 4 1 C4 3.64 4 6.28 4 9 C2.68 9.33 1.36 9.66 0 10 C-0.95 6.3 -0.95 3.7 0 0 Z " fill="#5D686A" transform="translate(654,7)"/>
<path d="M0 0 C0 3.3 0 6.6 0 10 C-0.33 9.34 -0.66 8.68 -1 8 C-2.95 7.41 -2.95 7.41 -5 7 C-5.66 6.67 -6.32 6.34 -7 6 C-6.81 4.12 -6.81 4.12 -6 2 C-2 0 -2 0 0 0 Z " fill="#F3F5F5" transform="translate(1230,7)"/>
<path d="M0 0 C1.68 0.29 3.34 0.62 5 1 C5 2.65 5 4.3 5 6 C3.12 7.06 3.12 7.06 1 8 C0.34 7.67 -0.32 7.34 -1 7 C-1.04 5 -1.04 3 -1 1 C-0.67 0.67 -0.34 0.34 0 0 Z " fill="#6E746A" transform="translate(225,10)"/>
<path d="M0 0 C2.97 0.49 2.97 0.49 6 1 C6 2.65 6 4.3 6 6 C4.68 6.33 3.36 6.66 2 7 C2 6.01 2 5.02 2 4 C0.68 3.67 -0.64 3.34 -2 3 C-1.34 2.01 -0.68 1.02 0 0 Z " fill="#616B6B" transform="translate(145,10)"/>
<path d="M0 0 C0.99 0.66 1.98 1.32 3 2 C3.29 4.38 3.29 4.38 3.19 7.12 C3.16 8.04 3.13 8.95 3.11 9.88 C3.07 10.58 3.04 11.28 3 12 C2.34 12 1.68 12 1 12 C1 11.01 1 10.02 1 9 C0.34 8.67 -0.32 8.34 -1 8 C-0.67 6.02 -0.34 4.04 0 2 C-0.66 1.67 -1.32 1.34 -2 1 C-1.34 0.67 -0.68 0.34 0 0 Z " fill="#86837C" transform="translate(120,5)"/>
<path d="M0 0 C0.66 0 1.32 0 2 0 C2.33 2.31 2.66 4.62 3 7 C2.34 6.67 1.68 6.34 1 6 C-1.1 6.4 -1.1 6.4 -3 7 C-2.25 2.25 -2.25 2.25 0 0 Z " fill="#616465" transform="translate(702,7)"/>
<path d="M0 0 C0.33 0.66 0.66 1.32 1 2 C3.53 2.66 3.53 2.66 6 3 C6.33 4.65 6.66 6.3 7 8 C5.06 7.69 5.06 7.69 3 7 C2.67 6.01 2.34 5.02 2 4 C-0.97 3.5 -0.97 3.5 -4 3 C-2.68 2.67 -1.36 2.34 0 2 C0 1.34 0 0.68 0 0 Z " fill="#F3F5F5" transform="translate(1203,9)"/>
</svg>
